<svg width="164" height="67" viewBox="0 0 164 67" fill="none" xmlns="http://www.w3.org/2000/svg">
<path d="M39.5012 67H11.9012L0.201172 -1.66893e-06H21.0012L24.2012 23.6L26.5012 50.2H27.8012L31.4012 23.6L36.3012 -1.66893e-06H63.2012L67.8012 22.6L72.0012 50.2H73.3012L75.7012 22.6L78.6012 -1.66893e-06H99.0012L87.2012 67H59.6012L53.8012 41.6L50.2012 18.7H49.0012L45.3012 41.6L39.5012 67ZM109.421 67H90.0215L113.321 -1.66893e-06H140.621L163.821 67H143.221L139.121 54.1H113.721L109.421 67ZM120.421 33.8L119.121 37.7H133.821L132.621 33.8L127.321 16.3H125.921L120.421 33.8Z" fill="black"/>
</svg>