<svg width="22" height="22" viewBox="0 0 22 22" fill="none" xmlns="http://www.w3.org/2000/svg">
<path d="M5.05228 3.60639L4.6621 3.21461C4.27193 2.82283 3.64164 2.83288 3.26147 3.21461L3.25146 3.22466C2.86129 3.61644 2.86129 4.24931 3.25146 4.63105L3.64164 5.02283C4.03182 5.41461 4.6521 5.41461 5.04228 5.02283L5.05228 5.01278C5.44246 4.63105 5.44246 3.98813 5.05228 3.60639ZM2.0109 9.99543H0.990435C0.440185 9.99543 -1.52588e-05 10.4374 -1.52588e-05 10.99V11C-1.52588e-05 11.5525 0.440185 11.9945 0.990435 11.9945H2.00089C2.56115 12.0046 3.00135 11.5626 3.00135 11.01V11C3.00135 10.4374 2.56115 9.99543 2.0109 9.99543ZM11.015 0H11.005C10.4447 0 10.0045 0.442009 10.0045 0.99452V1.9589C10.0045 2.51142 10.4447 2.95342 10.995 2.95342H11.005C11.5652 2.96347 12.0054 2.52146 12.0054 1.96895V0.99452C12.0054 0.442009 11.5652 0 11.015 0ZM18.7585 3.22466C18.3683 2.83288 17.738 2.83288 17.3479 3.21461L16.9577 3.60639C16.5675 3.99817 16.5675 4.63105 16.9577 5.01278L16.9677 5.02283C17.3579 5.41461 17.9882 5.41461 18.3683 5.02283L18.7585 4.63105C19.1487 4.23927 19.1487 3.61644 18.7585 3.22466ZM16.9477 18.3936L17.3379 18.7854C17.728 19.1772 18.3583 19.1772 18.7485 18.7854C19.1387 18.3936 19.1387 17.7607 18.7485 17.3689L18.3583 16.9772C17.9682 16.5854 17.3379 16.5954 16.9577 16.9772C16.5575 17.379 16.5575 18.0018 16.9477 18.3936ZM19.0086 10.99V11C19.0086 11.5525 19.4488 11.9945 19.9991 11.9945H21.0095C21.5598 11.9945 22 11.5525 22 11V10.99C22 10.4374 21.5598 9.99543 21.0095 9.99543H19.9991C19.4488 9.99543 19.0086 10.4374 19.0086 10.99ZM11.005 4.9726C7.69348 4.9726 5.00226 7.67489 5.00226 11C5.00226 14.3251 7.69348 17.0274 11.005 17.0274C14.3165 17.0274 17.0077 14.3251 17.0077 11C17.0077 7.67489 14.3165 4.9726 11.005 4.9726ZM10.995 22H11.005C11.5552 22 11.9954 21.558 11.9954 21.0055V20.0411C11.9954 19.4886 11.5552 19.0466 11.005 19.0466H10.995C10.4447 19.0466 10.0045 19.4886 10.0045 20.0411V21.0055C10.0045 21.558 10.4447 22 10.995 22ZM3.25146 18.7753C3.64164 19.1671 4.27193 19.1671 4.6621 18.7753L5.05228 18.3836C5.44246 17.9918 5.43245 17.3589 5.05228 16.9772L5.04228 16.9671C4.6521 16.5753 4.02181 16.5753 3.63164 16.9671L3.24146 17.3589C2.86129 17.7607 2.86129 18.3836 3.25146 18.7753Z" fill="white"/>
</svg>
